<svg width="24" height="24" viewBox="0 0 24 24" fill="none" xmlns="http://www.w3.org/2000/svg">
<path d="M19.775 22.575L18.175 21H3.99995C3.44995 21 2.97912 20.8041 2.58745 20.4125C2.19578 20.0208 1.99995 19.55 1.99995 19V6.99998C1.99995 6.44998 2.19578 5.97914 2.58745 5.58748C2.97912 5.19581 3.44995 4.99998 3.99995 4.99998H5.02495V7.84998L1.37495 4.19998C1.17495 3.99998 1.07495 3.76248 1.07495 3.48748C1.07495 3.21248 1.17495 2.97498 1.37495 2.77498C1.57495 2.57498 1.81245 2.47498 2.08745 2.47498C2.36245 2.47498 2.59995 2.57498 2.79995 2.77498L21.2 21.175C21.4 21.375 21.5 21.6083 21.5 21.875C21.5 22.1416 21.4 22.375 21.2 22.575C21 22.775 20.7625 22.875 20.4875 22.875C20.2125 22.875 19.975 22.775 19.775 22.575ZM22 19.125L16.475 13.575C16.5583 12.875 16.4875 12.1958 16.2625 11.5375C16.0375 10.8791 15.675 10.3 15.175 9.79998C14.6916 9.31664 14.1208 8.96248 13.4625 8.73748C12.8041 8.51248 12.125 8.44164 11.425 8.52498L7.49995 4.62498L8.39995 3.64998C8.58329 3.44998 8.80412 3.29164 9.06245 3.17498C9.32079 3.05831 9.59162 2.99998 9.87495 2.99998H14.125C14.4083 2.99998 14.6791 3.05831 14.9375 3.17498C15.1958 3.29164 15.4166 3.44998 15.6 3.64998L16.85 4.99998H20C20.55 4.99998 21.0208 5.19581 21.4125 5.58748C21.8041 5.97914 22 6.44998 22 6.99998V19.125ZM12 17.5C12.3833 17.5 12.7541 17.4583 13.1125 17.375C13.4708 17.2916 13.8166 17.1583 14.15 16.975L8.02495 10.85C7.84162 11.1833 7.70829 11.5291 7.62495 11.8875C7.54162 12.2458 7.49995 12.6166 7.49995 13C7.49995 14.25 7.93745 15.3125 8.81245 16.1875C9.68745 17.0625 10.75 17.5 12 17.5ZM12 15.5C11.3 15.5 10.7083 15.2583 10.225 14.775C9.74162 14.2916 9.49995 13.7 9.49995 13C9.49995 12.6666 9.56245 12.3458 9.68745 12.0375C9.81245 11.7291 9.99162 11.4583 10.225 11.225L13.775 14.775C13.5416 15.0083 13.2708 15.1875 12.9625 15.3125C12.6541 15.4375 12.3333 15.5 12 15.5Z" fill="black"/>
</svg>
