<svg width="24" height="24" viewBox="0 0 24 24" fill="none" xmlns="http://www.w3.org/2000/svg">
<g id="icons / place_item" clip-path="url(#clip0_1_4807)">
<path id="Vector" d="M5 21C4.45 21 3.97917 20.8042 3.5875 20.4125C3.19583 20.0208 3 19.55 3 19V9C3 8.45 3.19583 7.97917 3.5875 7.5875C3.97917 7.19583 4.45 7 5 7H8C8.28333 7 8.52083 7.09583 8.7125 7.2875C8.90417 7.47917 9 7.71667 9 8C9 8.28333 8.90417 8.52083 8.7125 8.7125C8.52083 8.90417 8.28333 9 8 9H5V19H19V9H16C15.7167 9 15.4792 8.90417 15.2875 8.7125C15.0958 8.52083 15 8.28333 15 8C15 7.71667 15.0958 7.47917 15.2875 7.2875C15.4792 7.09583 15.7167 7 16 7H19C19.55 7 20.0208 7.19583 20.4125 7.5875C20.8042 7.97917 21 8.45 21 9V19C21 19.55 20.8042 20.0208 20.4125 20.4125C20.0208 20.8042 19.55 21 19 21H5ZM13 12.175L13.9 11.275C14.0833 11.0917 14.3125 11 14.5875 11C14.8625 11 15.1 11.1 15.3 11.3C15.4833 11.4833 15.575 11.7167 15.575 12C15.575 12.2833 15.4833 12.5167 15.3 12.7L12.7 15.3C12.5 15.5 12.2667 15.6 12 15.6C11.7333 15.6 11.5 15.5 11.3 15.3L8.7 12.7C8.51667 12.5167 8.42083 12.2875 8.4125 12.0125C8.40417 11.7375 8.5 11.5 8.7 11.3C8.88333 11.1167 9.11667 11.025 9.4 11.025C9.68333 11.025 9.91667 11.1167 10.1 11.3L11 12.175V1C11 0.716667 11.0958 0.479167 11.2875 0.2875C11.4792 0.0958333 11.7167 0 12 0C12.2833 0 12.5208 0.0958333 12.7125 0.2875C12.9042 0.479167 13 0.716667 13 1V12.175Z" fill="black"/>
</g>
<defs>
<clipPath id="clip0_1_4807">
<rect width="24" height="24" fill="white"/>
</clipPath>
</defs>
</svg>
